<?xml version="1.0" encoding="UTF-8"?>
<svg width="220px" height="49px" viewBox="0 0 220 49" version="1.1" xmlns="http://www.w3.org/2000/svg" xmlns:xlink="http://www.w3.org/1999/xlink">
    <!-- Generator: Sketch 52.2 (67145) - http://www.bohemiancoding.com/sketch -->
    <title>01logo</title>
    <desc>Created with Sketch.</desc>
    <defs>
        <polygon id="path-1" points="0.0176274018 0.0134855866 53.9027639 0.0134855866 53.9027639 31.1620066 0.0176274018 31.1620066"></polygon>
    </defs>
    <g id="视觉稿" stroke="none" stroke-width="1" fill="none" fill-rule="evenodd">
        <g id="02列表页_收起" transform="translate(-370.000000, -105.000000)">
            <g id="首栏" transform="translate(0.000000, 94.000000)">
                <g id="01logo" transform="translate(370.000000, 11.000000)">
                    <g id="分组-16" transform="translate(0.000000, 0.000000)">
                        <g id="分组-11-copy-15" transform="translate(79.047619, 0.952381)" fill-rule="nonzero">
                            <path d="M84.0698687,14.0509925 L84.0698687,23.2639577 L78.3745863,23.2639577 L78.3745863,-1.33582035e-12 L84.0698687,-1.30492922e-12 L84.0698687,9.59383566 L91.2651432,-1.33582035e-12 L98.038545,-1.33582035e-12 L88.8979682,11.5626032 L88.8745309,11.5626032 L98.601042,23.2639577 L91.3588927,23.2639577 L84.0698687,14.0509925 Z M20.2498931,8.02085706 L16.1734205,14.0601255 L16.1701588,14.0601255 L16.1717896,14.0625416 L12.9725878,18.802139 L9.77338591,14.0625416 L9.77501675,14.0601255 L9.77175507,14.0601255 L5.69528244,8.02085706 L5.69528244,23.2639577 L0,23.2639577 L0,-3.63797881e-12 L5.69528244,-3.5538498e-12 L6.67965224,-3.63797881e-12 L12.9725878,9.32294424 L19.2655233,-3.63797881e-12 L25.663927,-3.63797881e-12 L25.9451755,-3.63797881e-12 L25.9451755,23.2639577 L20.2498931,23.2639577 L20.2498931,8.02085706 Z M45.5676646,18.8701685 L36.1350291,18.8701685 L34.4529431,23.2639577 L28.2889132,23.2639577 L37.4294899,-1.13686841e-13 L43.3591461,-1.13686841e-13 L44.2732038,-1.13686841e-13 L53.4137805,23.2639577 L47.2497506,23.2639577 L45.5676646,18.8701685 Z M43.5491614,13.5976214 L40.8513469,6.55064072 L38.1535323,13.5976214 L43.5491614,13.5976214 Z M61.4528006,-2.90828706e-21 L65.9293395,-2.90828706e-21 C70.4482121,-2.90828706e-21 75.0933536,2.50200276 75.0933536,7.65444334 C75.0933536,11.0341209 73.0947646,13.273438 70.5103158,14.4142857 L75.5621011,23.2639577 L68.9293236,23.2639577 L64.7068905,15.3088867 L61.4528006,15.3088867 L61.4528006,23.2639577 L55.7575182,23.2639577 L55.7575182,-2.90828706e-21 L61.4528006,-2.90828706e-21 Z M61.4528006,5.13379584 L61.4528006,10.1982161 L65.9879329,10.1982161 C67.4053125,10.1982161 68.7886994,9.24950862 68.7886994,7.66600595 C68.7886994,6.08250327 67.4053125,5.13379584 65.9879329,5.13379584 L61.4528006,5.13379584 Z M106.640062,8.9263297 L116.835321,8.9263297 L116.835321,14.1988768 L106.640062,14.1988768 L106.640062,17.9914106 L118.35875,17.9914106 L118.35875,23.2639577 L106.640062,23.2639577 L100.94478,23.2639577 L100.94478,-2.90828706e-21 L106.640062,-2.90828706e-21 L118.35875,-2.90828706e-21 L118.35875,5.27254708 L106.640062,5.27254708 L106.640062,8.9263297 Z M133.921168,5.27254708 L133.921168,23.2639577 L128.225886,23.2639577 L128.225886,5.27254708 L121.171235,5.27254708 L121.171235,-2.90828706e-21 L140.952381,-2.90828706e-21 L140.952381,5.27254708 L133.921168,5.27254708 Z" id="合并形状-copy-39" fill="#333333"></path>
                            <path d="M5.28747209,35.5804427 L6.17340491,35.5804427 C6.0046558,35.1919392 5.79371942,34.8173109 5.54059575,34.4565576 L6.67965224,34.0541791 C6.9327759,34.4843079 7.15777472,34.9976875 7.35464868,35.5804427 L7.860896,35.5804427 C8.02964511,34.9976875 8.14214452,34.3733069 8.22651907,33.707301 L9.52026225,33.8599273 C9.43588769,34.4704328 9.30932586,35.0393129 9.1687016,35.5804427 L10.040572,35.5804427 C10.3218205,35.0809382 10.5468193,34.5398084 10.7436933,33.9709283 L11.9389995,34.4149323 C11.7280631,34.8589362 11.5171267,35.2474397 11.2921279,35.5804427 L12.3327474,35.5804427 L12.3327474,36.6627023 L8.83120338,36.6627023 C8.71870398,36.9679551 8.59214214,37.2454575 8.46558031,37.52296 L12.7264953,37.52296 L12.7264953,38.6190948 L10.7436933,38.6190948 C11.3061903,39.1740998 12.0796237,39.6181037 13.0639935,39.9511067 L12.5014965,41.102742 C11.9811868,40.8668649 11.5171267,40.6032375 11.1233788,40.3257351 C11.0390042,41.0056161 10.9405672,41.6022464 10.8280678,42.1017509 L12.3046225,42.1017509 C12.2483728,44.460522 12.0796237,45.7786587 11.7702504,46.0839115 C11.4749394,46.3614139 10.8421303,46.5140403 9.87182289,46.5140403 L9.26713858,46.5140403 L8.92964036,45.4040304 C9.28120101,45.4179055 9.6046368,45.4317806 9.91401017,45.4317806 C10.3499454,45.4317806 10.6311939,45.362405 10.7718181,45.2236538 C10.9124424,45.0849025 10.996817,44.3911463 11.0249418,43.1423852 L5.79371942,43.1423852 C6.06090551,42.337628 6.25777947,41.6161216 6.3843413,41.0056161 L7.62183477,41.1166171 C7.52339779,41.4773703 7.42496081,41.7964982 7.34058625,42.1017509 L9.59057437,42.1017509 C9.70307378,41.6854972 9.78744833,41.2414932 9.87182289,40.7419888 L6.34215402,40.7419888 L6.34215402,40.3257351 C5.9484061,40.658738 5.54059575,40.9639907 5.09059813,41.2276181 L4.48591382,40.2979848 L4.48591382,45.2375289 C4.48591382,46.0700363 4.04997862,46.5001652 3.17810822,46.5001652 L2.26405055,46.5001652 L1.95467718,45.2930294 C2.24998812,45.3346548 2.53123664,45.362405 2.7843603,45.362405 C3.07967124,45.362405 3.23435793,45.1681533 3.23435793,44.7935249 L3.23435793,42.004625 L1.89842748,42.004625 C1.81405292,43.8361414 1.50467956,45.3346548 0.984369804,46.5279154 L0,45.6399075 C0.435935199,44.4327717 0.660934011,42.9065081 0.674996437,41.0472415 L0.674996437,34.2068054 L4.48591382,34.2068054 L4.48591382,40.1453584 C5.21715996,39.7291047 5.83590669,39.2296003 6.34215402,38.6190948 L4.87966174,38.6190948 L4.87966174,37.52296 L7.08746259,37.52296 C7.24214927,37.2454575 7.38277353,36.9540799 7.50933536,36.6627023 L5.28747209,36.6627023 L5.28747209,35.5804427 Z M7.01715046,39.6874794 L10.3358829,39.6874794 C9.97025987,39.3406013 9.68901135,38.979848 9.46401254,38.6190948 L7.84683358,38.6190948 C7.57964749,39.0075983 7.29839897,39.3544764 7.01715046,39.6874794 Z M1.92655233,38.7439709 L1.92655233,40.7558639 L3.23435793,40.7558639 L3.23435793,38.7439709 L1.92655233,38.7439709 Z M3.23435793,37.5090849 L3.23435793,35.4416914 L1.92655233,35.4416914 L1.92655233,37.5090849 L3.23435793,37.5090849 Z M4.99216115,43.7806409 L10.1108841,43.7806409 L10.1108841,44.8906508 L4.99216115,44.8906508 L4.99216115,43.7806409 Z M36.2271525,39.0769739 L38.224017,39.0769739 L38.224017,35.5804427 L36.4662138,35.5804427 L36.4662138,34.3178064 L43.0896163,34.3178064 L43.0896163,38.7162207 C43.0896163,41.3524942 43.2583654,43.1840106 43.5958636,44.1968946 C43.7364879,44.6270235 43.8771121,44.8490254 43.9896115,44.8490254 C44.0317988,44.8490254 44.0739861,44.6547737 44.1021109,44.2662702 C44.1302358,43.8777668 44.1583607,43.4198877 44.1583607,42.8648827 L45.1989802,43.3505121 C45.1427305,44.7102742 45.0161686,45.5705319 44.8192947,45.9451602 C44.6786704,46.2226627 44.4958589,46.3614139 44.2849225,46.3614139 C43.708363,46.3475388 43.2161781,46.028411 42.8083678,45.4040304 C42.1193089,44.3078956 41.7677483,42.0740007 41.7677483,38.7162207 L41.7677483,35.5804427 L39.5177601,35.5804427 L39.5177601,39.0769739 L41.3036882,39.0769739 L41.3036882,40.3396102 L39.5177601,40.3396102 L39.5177601,46.5695408 L38.224017,46.5695408 L38.224017,40.3396102 L36.2271525,40.3396102 L36.2271525,39.0769739 Z M33.8506026,33.8599273 C34.7365354,34.5398084 35.481844,35.2196895 36.0865283,35.9134457 L35.1724706,36.8292038 C34.6380984,36.177073 33.8787274,35.4833168 32.9224825,34.7618104 L33.8506026,33.8599273 Z M32.0365496,37.8837132 L35.186533,37.8837132 L35.186533,43.7251404 C35.5662185,43.3782623 35.9740289,42.9897588 36.4099641,42.55963 L36.7615247,43.9471424 C35.9177792,44.7657747 35.0037215,45.5011563 34.0474765,46.139412 L33.5412292,44.9600264 C33.766228,44.7518996 33.8927898,44.5021473 33.8927898,44.1968946 L33.8927898,39.1463495 L32.0365496,39.1463495 L32.0365496,37.8837132 Z M65.5215291,34.4565576 L75.6183508,34.4565576 L75.6183508,35.733069 L65.5215291,35.733069 L65.5215291,34.4565576 Z M64.1715363,38.2860918 L76.8699067,38.2860918 L76.8699067,39.6042286 L70.2043169,39.6042286 C68.9949483,41.9907499 67.9402664,43.6973902 67.0262087,44.7241493 C69.3324465,44.5853981 71.6386843,44.349521 73.9167973,44.0303931 C73.4667997,43.2395111 72.9746148,42.4208788 72.4402426,41.5883713 L73.508987,40.9362405 C74.7886677,42.8093822 75.7730375,44.4466468 76.4761588,45.8341592 L75.2808526,46.6527915 C75.0558538,46.1810373 74.830855,45.7092831 74.5777313,45.2375289 C71.7511837,45.6260324 68.6855749,45.9312851 65.3668424,46.1532871 L65.0152818,44.8074001 C65.1559061,44.7657747 65.2684055,44.7241493 65.3387176,44.682524 C66.1965256,44.0442683 67.3215196,42.3515031 68.7136998,39.6042286 L64.1715363,39.6042286 L64.1715363,38.2860918 Z M95.8424628,35.2335646 L101.383059,35.2335646 C101.172122,34.7340601 100.947123,34.2623059 100.708062,33.8460522 L102.14243,33.6240502 C102.353366,34.1096796 102.55024,34.6508094 102.747114,35.2335646 L108.386147,35.2335646 L108.386147,36.4962009 L102.789301,36.4962009 L102.789301,38.0085894 L107.35959,38.0085894 L107.35959,43.1562603 C107.35959,44.0442683 106.881467,44.5021473 105.953347,44.5021473 L104.533042,44.5021473 L104.195544,43.2533862 L105.531474,43.3227618 C105.868972,43.3227618 106.037722,43.1562603 106.037722,42.8510076 L106.037722,39.2712256 L102.789301,39.2712256 L102.789301,46.5417906 L101.439308,46.5417906 L101.439308,39.2712256 L98.359637,39.2712256 L98.359637,44.5992732 L97.0518314,44.5992732 L97.0518314,38.0085894 L101.439308,38.0085894 L101.439308,36.4962009 L95.8424628,36.4962009 L95.8424628,35.2335646 Z M134.544602,39.6643541 L132.632112,39.6643541 L132.632112,38.4572184 C134.207104,37.5692104 135.655534,36.6395771 136.991464,35.6544433 L132.828986,35.6544433 L132.828986,34.4473076 L138.974266,34.4473076 L138.974266,35.5850677 C137.722711,36.625702 136.358655,37.6108358 134.896163,38.526594 L140.014886,38.526594 C139.916449,41.8704988 139.7477,44.0072679 139.494576,44.9507763 C139.241452,45.8942848 138.566456,46.366039 137.469587,46.3937892 C137.005527,46.3937892 136.555529,46.3799141 136.119594,46.3521639 L135.753971,45.0756525 C136.274281,45.131153 136.780528,45.1589032 137.286775,45.1589032 C137.764898,45.1450281 138.088334,44.9230261 138.285208,44.4790221 C138.453957,44.1043938 138.580518,42.4948794 138.664893,39.6643541 L137.947709,39.6643541 C137.610211,41.3016188 137.118026,42.5781302 136.471155,43.5216386 C135.739908,44.576148 134.643039,45.5196564 133.180547,46.3521639 L132.364926,45.3115296 C133.658669,44.6038982 134.657102,43.8130162 135.332098,42.9388834 C135.92272,42.1341262 136.358655,41.0379914 136.668029,39.6643541 L135.810221,39.6643541 C135.303973,41.3987446 134.41804,42.7585068 133.166485,43.7297654 L132.336801,42.7030063 C133.363359,41.9121242 134.094605,40.8992402 134.544602,39.6643541 Z M127.513389,37.4859597 L129.088381,37.4859597 L129.088381,34.0865543 L130.438374,34.0865543 L130.438374,37.4859597 L132.083678,37.4859597 L132.083678,38.748596 L130.438374,38.748596 L130.438374,43.230261 C131.000871,43.0498844 131.535243,42.8556326 132.069615,42.6613809 L132.069615,44.0350182 C130.719622,44.5483978 129.25713,44.9785266 127.710263,45.3254047 L127.358703,43.9378923 C127.949325,43.8407664 128.525884,43.7297654 129.088381,43.5910142 L129.088381,38.748596 L127.513389,38.748596 L127.513389,37.4859597 Z" id="腾讯云市场" fill="#999999"></path>
                        </g>
                        <g id="分组-copy-10">
                            <g id="分组" transform="translate(13.378987, 17.401557)">
                                <g id="Fill-1-Clipped">
                                    <mask id="mask-2" fill="white">
                                        <use xlink:href="#path-1"></use>
                                    </mask>
                                    <g id="path-1"></g>
                                    <path d="M49.4417168,4.68357233 C46.6253228,1.8190558 42.6998811,0.0139538362 38.3359843,0.0134855866 C34.5635794,0.0132514619 31.3160065,1.31077092 28.4806001,3.61385627 C27.2443348,4.61778327 25.9477467,5.81977983 24.3166839,7.40012201 C23.5064337,8.18490823 0.0176274018,30.9188914 0.0176274018,30.9188914 C1.24896362,31.0937826 2.94246168,31.1459925 4.45240942,31.1553574 C5.86706123,31.1642542 32.8548246,31.1616788 33.9845275,31.1616788 C36.2584858,31.1616788 37.7381548,31.1593376 39.3276723,31.0432117 C42.9730941,30.7777142 46.4168922,29.4443736 49.2006604,26.7175225 C55.3824564,20.6621195 55.4754051,10.8344982 49.4417168,4.68357233 M44.9268956,22.3604605 C43.7288895,23.5430247 41.5920071,24.8859644 38.0841307,25.0048998 C36.4619872,25.0599191 34.5678044,25.0660064 33.7009869,25.0660064 C32.7553038,25.0660064 24.4140923,25.0660064 14.8525765,25.0660064 C21.7103634,18.4222478 27.6924135,12.6267233 28.3709863,11.9695351 C28.9927571,11.3671321 30.3909786,10.032855 31.5969652,8.94979385 C34.2443615,6.57178858 36.6281683,6.09323756 38.3134512,6.10892392 C40.9547449,6.13374114 43.3568598,7.20954445 45.0738298,8.94628198 C48.7467137,12.6911076 48.6598676,18.6755708 44.9268956,22.3604605" id="Fill-1" fill="#00A3FF" fill-rule="nonzero" mask="url(#mask-2)"></path>
                                </g>
                            </g>
                            <path d="M24.9235501,20.6232314 C22.1625497,18.562231 19.0712996,17.410103 15.566944,17.4150197 C11.2030471,17.4152538 7.27737073,19.2203557 4.46097667,22.0851064 C-1.57247691,28.2360323 -1.47952816,38.0638877 4.70226787,44.1190565 C7.18418727,46.5502081 10.1909385,47.8730131 13.3974356,48.319489 L19.4452071,42.4659016 C18.4673675,42.4619214 17.0639822,42.4485763 15.8185628,42.4064339 C12.3109211,42.2874985 10.1740387,40.9447929 8.97579789,39.7619946 C5.24282588,36.0771049 5.15597982,30.0926417 8.82909848,26.3478161 C10.5460684,24.6110785 12.9481834,23.5352752 15.5892423,23.5106921 C17.2442464,23.5039025 19.4905079,23.98339 22.0285251,26.0818503 C23.2401449,27.0836702 25.9302601,29.4424772 27.1104276,30.5039989 C27.1705157,30.5580817 27.2428092,30.5629984 27.3132249,30.5054037 L31.4773758,26.4527039 C31.5494346,26.3829348 31.5452096,26.2888166 31.4740897,26.2246664 C29.4714667,24.4188621 26.6323049,21.8924217 24.9235501,20.6232314" id="Fill-3" fill="#00C8DC"></path>
                            <path d="M53.3522773,13.897178 C50.4788465,5.80137762 42.7413325,-2.84217094e-14 33.6408049,-2.84217094e-14 C23.2016745,-2.84217094e-14 14.5508686,7.6568164 12.9841188,17.6309998 C13.8237089,17.4898225 14.6863015,17.4151367 15.5669674,17.4151367 C16.7924357,17.4134979 17.9662657,17.5560798 19.0943256,17.8269622 C19.1163891,17.8314106 19.1384527,17.8339859 19.1602816,17.8393708 C20.5746987,11.1052401 26.5431351,6.10293032 33.6408049,6.10293032 C39.5519699,6.10293032 44.7380876,9.65951967 47.0758895,14.6988212 C47.1127404,14.7781895 47.1749409,14.8044114 47.2387845,14.7870862 C48.997065,14.3050233 51.1053117,14.024776 53.1414996,14.1746158 C53.3398372,14.1893657 53.4161209,14.0779223 53.3522773,13.897178" id="Fill-5" fill="#006EFF"></path>
                        </g>
                    </g>
                </g>
            </g>
        </g>
    </g>
</svg>