<svg xmlns="http://www.w3.org/2000/svg" width="28" height="28" viewBox="0 0 28 28">
  <title>关系型数据库CDB</title>
  <path d="M14.6,19H14C8.5,19,4,17.7,4,16V9.7C6.2,11.1,9.8,12,14,12s7.9-.9,10-2.2v4.5a11.919,11.919,0,0,1,2,.8V7c0-2.8-5.4-5-12-5S2,4.2,2,7V25H4V18.8c2,1.3,5.3,2.1,9.2,2.2a10.627,10.627,0,0,1,1.1-.9A3.545,3.545,0,0,1,14.6,19ZM14,4c5.5,0,10,1.3,10,3s-4.5,3-10,3S4,8.6,4,7C4,5.3,8.5,4,14,4ZM4,25H2c0,2.5,4.4,4.6,10.2,4.9a10.243,10.243,0,0,1-1-2.1C7.1,27.5,4,26.4,4,25Zm23-2.9V22a5,5,0,0,0-10,0v.1A4.015,4.015,0,0,0,18,30h8a4.012,4.012,0,0,0,4-4A4.079,4.079,0,0,0,27,22.1ZM26,28H18a2.006,2.006,0,0,1-2-2,1.927,1.927,0,0,1,1.5-1.9l1.5-.4V21.9A2.989,2.989,0,0,1,22,19a3.058,3.058,0,0,1,3,2.9v1.8l1.5.4A1.927,1.927,0,0,1,28,26,2.006,2.006,0,0,1,26,28Z" transform="translate(-2 -2)" style="fill: #00a4ff"/>
</svg>
